# Blender v2.79 (sub 0) OBJ File: ''
# www.blender.org
mtllib Adjustable_Height_Work_Table.mtl
o Adjustable_Height_Work_Table_457x610x762_Untitled
v -0.192940 0.305000 -0.508000
v -0.192940 0.299920 -0.508000
v 0.198020 0.305000 -0.508000
v 0.198020 0.299920 -0.508000
v 0.198020 -0.299920 -0.508000
v 0.223420 0.274520 -0.508000
v 0.223420 -0.274520 -0.508000
v 0.223420 -0.299920 -0.508000
v -0.223420 0.299920 -0.508000
v -0.223420 0.274520 -0.508000
v -0.223420 -0.274520 -0.508000
v -0.198020 -0.299920 -0.508000
v -0.223420 -0.299920 -0.508000
v 0.223420 0.299920 -0.508000
v -0.228500 0.305000 -0.000000
v -0.228500 -0.305000 -0.000000
v 0.228500 0.305000 0.000000
v 0.228500 -0.305000 0.000000
v -0.198020 -0.299920 -0.533400
v 0.198020 -0.299920 -0.533400
v -0.192940 0.305000 -0.533400
v 0.198020 0.299920 -0.533400
v -0.192940 0.299920 -0.533400
v 0.198020 0.305000 -0.533400
v 0.223420 0.299920 -0.533400
v 0.223420 0.274520 -0.533400
v 0.223420 -0.274520 -0.533400
v 0.223420 -0.299920 -0.533400
v -0.223420 -0.299920 -0.533400
v -0.223420 -0.274520 -0.533400
v -0.223420 0.274520 -0.533400
v -0.223420 0.299920 -0.533400
v -0.223420 -0.299920 -0.762000
v -0.223420 -0.274520 -0.762000
v -0.223420 -0.299920 -0.025400
v -0.198020 -0.299920 -0.025400
v 0.223420 -0.299920 -0.025400
v 0.223420 -0.274520 -0.025400
v 0.198020 -0.299920 -0.025400
v -0.192940 0.305000 -0.025400
v -0.192940 0.299920 -0.025400
v -0.192940 0.299920 -0.762000
v -0.192940 0.305000 -0.762000
v -0.223420 0.299920 -0.025400
v -0.223420 0.299920 -0.762000
v -0.223420 0.274520 -0.025400
v -0.223420 0.274520 -0.762000
v 0.223420 0.274520 -0.025400
v 0.223420 0.299920 -0.025400
v 0.223420 0.299920 -0.762000
v 0.223420 0.274520 -0.762000
v 0.198020 0.299920 -0.025400
v 0.198020 0.305000 -0.025400
v 0.198020 0.305000 -0.762000
v 0.198020 0.299920 -0.762000
v -0.228500 0.274520 -0.025400
v -0.228500 0.274520 -0.762000
v -0.228500 0.305000 -0.762000
v 0.228500 0.274520 -0.025400
v 0.228500 0.274520 -0.762000
v 0.228500 0.305000 -0.762000
v -0.198020 -0.299920 -0.762000
v -0.198020 -0.305000 -0.025400
v -0.198020 -0.305000 -0.762000
v -0.223420 -0.274520 -0.025400
v -0.228500 -0.274520 -0.025400
v -0.228500 -0.274520 -0.762000
v -0.228500 -0.305000 -0.762000
v 0.223420 -0.274520 -0.762000
v 0.223420 -0.299920 -0.762000
v 0.228500 -0.274520 -0.025400
v 0.228500 -0.274520 -0.762000
v 0.198020 -0.299920 -0.762000
v 0.198020 -0.305000 -0.025400
v 0.198020 -0.305000 -0.762000
v 0.228500 -0.305000 -0.762000
vt 0.755596 0.693221
vt 0.755596 0.690644
vt 0.966379 0.693220
vt 0.966379 0.690644
vt 0.966379 0.386441
vt 0.980073 0.677763
vt 0.980073 0.399322
vt 0.980073 0.386441
vt 0.739163 0.690644
vt 0.739163 0.677763
vt 0.739163 0.399322
vt 0.752857 0.386441
vt 0.739163 0.386441
vt 0.980073 0.690644
vt 0.492776 0.695797
vt 0.492775 0.386441
vt 0.739163 0.695797
vt 0.739163 0.386441
vt 0.520164 0.695797
vt 0.533858 0.695797
vt 0.520164 0.896645
vt 0.533858 0.896645
vt 0.755596 0.693221
vt 0.966379 0.695797
vt 0.755596 0.695797
vt 0.966379 1.000000
vt 0.752857 1.000000
vt 0.966379 0.693221
vt 0.980073 0.695797
vt 0.980073 0.708678
vt 0.980073 0.987119
vt 0.980073 1.000000
vt 0.739163 1.000000
vt 0.739163 0.987119
vt 0.739163 0.708678
vt 0.739163 0.695797
vt 0.934268 0.278440
vt 0.920573 0.278440
vt 0.934268 0.000000
vt 0.920573 0.000000
vt 0.947962 0.278440
vt 0.934268 0.278440
vt 0.947962 0.000000
vt 0.934268 0.000000
vt 0.618762 0.695797
vt 0.618762 0.811729
vt 0.605068 0.695797
vt 0.605068 0.811729
vt 0.975350 0.244746
vt 0.975350 0.000000
vt 0.989044 0.244746
vt 0.989044 0.000000
vt 0.980073 0.875933
vt 0.980073 0.631187
vt 0.993767 0.875933
vt 0.993767 0.631187
vt 0.961656 0.244746
vt 0.961656 0.000000
vt 0.975350 0.244746
vt 0.975350 0.000000
vt 0.648889 0.940543
vt 0.648889 0.695797
vt 0.651628 0.940543
vt 0.651628 0.695797
vt 0.654367 0.695797
vt 0.654367 0.811729
vt 0.651628 0.695797
vt 0.651628 0.811729
vt 0.920573 0.000000
vt 0.920573 0.244746
vt 0.904140 0.000000
vt 0.904140 0.244746
vt 0.533858 0.811729
vt 0.533858 0.695797
vt 0.550291 0.811729
vt 0.550291 0.695797
vt 0.506470 0.940543
vt 0.506470 0.695797
vt 0.520164 0.940543
vt 0.520164 0.695797
vt 0.605068 0.695797
vt 0.605068 0.811729
vt 0.591374 0.695797
vt 0.591374 0.811729
vt 0.980073 0.631187
vt 0.980073 0.386441
vt 0.993767 0.631187
vt 0.993767 0.386441
vt 0.632456 0.811729
vt 0.632456 0.695797
vt 0.646150 0.811729
vt 0.646150 0.695797
vt 0.648889 0.695797
vt 0.648889 0.940543
vt 0.646150 0.695797
vt 0.646150 0.940543
vt 0.654367 0.811729
vt 0.654367 0.695797
vt 0.657106 0.811729
vt 0.657106 0.695797
vt 0.947962 0.244746
vt 0.947962 0.000000
vt 0.961656 0.244746
vt 0.961656 0.000000
vt 0.993767 0.386441
vt 0.996506 0.386441
vt 0.993767 0.631187
vt 0.996506 0.760001
vt 0.993767 0.644068
vt 0.993767 0.760001
vt 0.657753 0.311932
vt 0.657753 0.309356
vt 0.671447 0.311932
vt 0.674186 0.309356
vt 0.674186 0.327390
vt 0.671447 0.327390
vt 0.550291 0.811729
vt 0.550291 0.695797
vt 0.563985 0.811729
vt 0.563985 0.695797
vt 0.989044 0.373560
vt 0.989044 0.128814
vt 0.991783 0.373560
vt 0.991783 0.000000
vt 0.989044 0.115932
vt 0.989044 0.000000
vt 0.671447 0.358305
vt 0.674186 0.358305
vt 0.671447 0.371186
vt 0.674186 0.373763
vt 0.657753 0.373763
vt 0.657753 0.371186
vt 0.591374 0.695797
vt 0.591374 0.811729
vt 0.577680 0.695797
vt 0.577680 0.811729
vt 0.994522 0.000000
vt 0.997261 0.000000
vt 0.994522 0.244746
vt 0.997261 0.373560
vt 0.994522 0.257627
vt 0.994522 0.373560
vt 0.492775 0.940543
vt 0.492775 0.695797
vt 0.506470 0.940543
vt 0.506470 0.695797
vt 1.000000 0.000000
vt 1.000000 0.244746
vt 0.997261 0.000000
vt 0.997261 0.373560
vt 1.000000 0.257627
vt 1.000000 0.373560
vt 0.674186 0.340271
vt 0.674186 0.342847
vt 0.660492 0.340271
vt 0.657753 0.342847
vt 0.657753 0.327390
vt 0.660492 0.327390
vt 0.618762 0.811729
vt 0.618762 0.695797
vt 0.632456 0.811729
vt 0.632456 0.695797
vt 0.996506 0.386441
vt 0.999245 0.386441
vt 0.996506 0.631187
vt 0.999245 0.760001
vt 0.996506 0.644068
vt 0.996506 0.760001
vt 0.577680 0.695797
vt 0.577680 0.811729
vt 0.563985 0.695797
vt 0.563985 0.811729
vt 0.994522 0.000000
vt 0.994522 0.244746
vt 0.991783 0.000000
vt 0.991783 0.373560
vt 0.994522 0.257627
vt 0.994522 0.373560
vt 0.674186 0.355729
vt 0.674186 0.358305
vt 0.660492 0.355729
vt 0.657753 0.358305
vt 0.657753 0.342847
vt 0.660492 0.342847
vt 0.265560 0.772882
vt 0.246388 0.772882
vt 0.265560 0.656950
vt 0.265560 0.644068
vt 0.476342 0.656950
vt 0.476342 0.644068
vt 0.492775 0.772882
vt 0.492775 0.386441
vt 0.476342 0.399322
vt 0.265560 0.399322
vt 0.246388 0.386441
vt 0.476342 0.772882
vt 0.312443 0.373560
vt 0.000000 0.386441
vt 0.016433 0.373560
vt 0.000000 0.000000
vt 0.016433 0.000000
vt 0.312443 0.000000
vt 0.328876 0.000000
vt 0.328876 0.386441
vt 0.657753 0.000000
vt 0.641320 0.012881
vt 0.328876 0.000000
vt 0.345309 0.012881
vt 0.328876 0.386441
vt 0.345309 0.386441
vt 0.657753 0.386441
vt 0.641320 0.386441
vt 0.229955 0.760001
vt 0.246388 0.772882
vt 0.016433 0.760001
vt 0.000000 0.772882
vt 0.000000 0.386441
vt 0.229955 0.386441
vt 0.246388 0.386441
vt 0.016433 0.386441
vt 0.676925 0.000000
vt 0.887707 0.002576
vt 0.676925 0.002576
vt 0.887707 0.306779
vt 0.674186 0.306779
vt 0.887707 0.309356
vt 0.674186 0.309356
vt 0.887707 0.000000
vt 0.901401 0.002576
vt 0.901401 0.015458
vt 0.904140 0.015458
vt 0.904140 0.293898
vt 0.901401 0.293898
vt 0.901402 0.306779
vt 0.660492 0.306779
vt 0.660492 0.293898
vt 0.657753 0.293898
vt 0.657753 0.015458
vt 0.660492 0.015458
vt 0.660491 0.002576
vn 0.0000 0.0000 1.0000
vn 0.0000 -1.0000 -0.0000
vn 0.0000 0.0000 -1.0000
vn 1.0000 0.0000 0.0000
vn -1.0000 0.0000 -0.0000
vn 0.0000 1.0000 0.0000
vn 1.0000 -0.0001 0.0000
vn -1.0000 0.0001 -0.0000
usemtl table_baked
s 1
f 1/1/1 2/2/1 3/3/1
f 3/3/1 2/2/1 4/4/1
f 4/4/1 2/2/1 5/5/1
f 4/4/1 5/5/1 6/6/1
f 6/6/1 5/5/1 7/7/1
f 7/7/1 5/5/1 8/8/1
f 9/9/1 10/10/1 2/2/1
f 2/2/1 10/10/1 11/11/1
f 2/2/1 11/11/1 12/12/1
f 12/12/1 11/11/1 13/13/1
f 12/12/1 5/5/1 2/2/1
f 6/6/1 14/14/1 4/4/1
f 15/15/1 16/16/1 17/17/1
f 17/17/1 16/16/1 18/18/1
f 12/19/2 19/20/2 5/21/2
f 5/21/2 19/20/2 20/22/2
f 21/23/3 22/24/3 23/25/3
f 23/25/3 22/24/3 20/26/3
f 23/25/3 20/26/3 19/27/3
f 21/23/3 24/28/3 22/24/3
f 25/29/3 26/30/3 22/24/3
f 22/24/3 26/30/3 20/26/3
f 26/30/3 27/31/3 20/26/3
f 20/26/3 27/31/3 28/32/3
f 29/33/3 30/34/3 19/27/3
f 19/27/3 30/34/3 23/25/3
f 30/34/3 31/35/3 23/25/3
f 23/25/3 31/35/3 32/36/3
f 7/37/4 27/38/4 6/39/4
f 6/39/4 27/38/4 26/40/4
f 30/41/5 11/42/5 31/43/5
f 31/43/5 11/42/5 10/44/5
f 29/45/4 33/46/4 30/47/4
f 30/47/4 33/46/4 34/48/4
f 13/49/6 35/50/6 12/51/6
f 12/51/6 35/50/6 36/52/6
f 8/53/5 37/54/5 7/55/5
f 7/55/5 37/54/5 38/56/5
f 5/57/6 39/58/6 8/59/6
f 8/59/6 39/58/6 37/60/6
f 1/61/4 40/62/4 2/63/4
f 2/63/4 40/62/4 41/64/4
f 23/65/4 42/66/4 21/67/4
f 21/67/4 42/66/4 43/68/4
f 2/69/2 41/70/2 9/71/2
f 9/71/2 41/70/2 44/72/2
f 32/73/2 45/74/2 23/75/2
f 23/75/2 45/74/2 42/76/2
f 9/77/4 44/78/4 10/79/4
f 10/79/4 44/78/4 46/80/4
f 31/81/4 47/82/4 32/83/4
f 32/83/4 47/82/4 45/84/4
f 6/85/5 48/86/5 14/87/5
f 14/87/5 48/86/5 49/88/5
f 25/89/5 50/90/5 26/91/5
f 26/91/5 50/90/5 51/92/5
f 4/93/5 52/94/5 3/95/5
f 3/95/5 52/94/5 53/96/5
f 24/97/5 54/98/5 22/99/5
f 22/99/5 54/98/5 55/100/5
f 14/101/2 49/102/2 4/103/2
f 4/103/2 49/102/2 52/104/2
f 46/105/2 56/106/2 10/107/2
f 10/107/2 56/106/2 57/108/2
f 10/107/2 57/108/2 31/109/2
f 31/109/2 57/108/2 47/110/2
f 47/111/3 57/112/3 45/113/3
f 45/113/3 57/112/3 58/114/3
f 45/113/3 58/114/3 43/115/3
f 43/115/3 42/116/3 45/113/3
f 22/117/2 55/118/2 25/119/2
f 25/119/2 55/118/2 50/120/2
f 48/121/2 6/122/2 59/123/2
f 59/123/2 6/122/2 60/124/2
f 60/124/2 6/122/2 26/125/2
f 60/124/2 26/125/2 51/126/2
f 55/127/3 54/128/3 50/129/3
f 50/129/3 54/128/3 61/130/3
f 50/129/3 61/130/3 60/131/3
f 60/131/3 51/132/3 50/129/3
f 19/133/6 62/134/6 29/135/6
f 29/135/6 62/134/6 33/136/6
f 36/137/4 63/138/4 12/139/4
f 12/139/4 63/138/4 64/140/4
f 12/139/4 64/140/4 19/141/7
f 19/141/7 64/140/4 62/142/4
f 11/143/4 65/144/4 13/145/4
f 13/145/4 65/144/4 35/146/4
f 65/147/6 11/148/6 66/149/6
f 66/149/6 11/148/6 67/150/6
f 67/150/6 11/148/6 30/151/6
f 67/150/6 30/151/6 34/152/6
f 62/153/3 64/154/3 33/155/3
f 33/155/3 64/154/3 68/156/3
f 33/155/3 68/156/3 67/157/3
f 67/157/3 34/158/3 33/155/3
f 27/159/5 69/160/5 28/161/5
f 28/161/5 69/160/5 70/162/5
f 38/163/6 71/164/6 7/165/6
f 7/165/6 71/164/6 72/166/6
f 7/165/6 72/166/6 27/167/6
f 27/167/6 72/166/6 69/168/6
f 28/169/6 70/170/6 20/171/6
f 20/171/6 70/170/6 73/172/6
f 39/173/5 5/174/5 74/175/5
f 74/175/5 5/174/5 75/176/5
f 75/176/5 5/174/5 20/177/8
f 75/176/5 20/177/8 73/178/5
f 69/179/3 72/180/3 70/181/3
f 70/181/3 72/180/3 76/182/3
f 70/181/3 76/182/3 75/183/3
f 75/183/3 73/184/3 70/181/3
f 43/185/6 58/186/6 21/187/6
f 21/187/6 58/186/6 1/188/6
f 21/187/6 1/188/6 24/189/6
f 24/189/6 1/188/6 3/190/6
f 24/189/6 3/190/6 61/191/6
f 61/191/6 3/190/6 17/192/6
f 17/192/6 3/190/6 53/193/6
f 17/192/6 53/193/6 40/194/6
f 58/186/6 15/195/6 1/188/6
f 1/188/6 15/195/6 40/194/6
f 40/194/6 15/195/6 17/192/6
f 61/191/6 54/196/6 24/189/6
f 66/197/5 15/198/5 56/199/5
f 56/199/5 15/198/5 58/200/5
f 56/199/5 58/200/5 57/201/5
f 67/202/5 68/203/5 66/197/5
f 66/197/5 68/203/5 16/204/5
f 66/197/5 16/204/5 15/198/5
f 18/205/4 71/206/4 17/207/4
f 17/207/4 71/206/4 59/208/4
f 17/207/4 59/208/4 61/209/4
f 61/209/4 59/208/4 60/210/4
f 18/205/4 76/211/4 71/206/4
f 71/206/4 76/211/4 72/212/4
f 74/213/2 18/214/2 63/215/2
f 63/215/2 18/214/2 16/216/2
f 63/215/2 16/216/2 68/217/2
f 75/218/2 76/219/2 74/213/2
f 74/213/2 76/219/2 18/214/2
f 68/217/2 64/220/2 63/215/2
f 40/221/3 52/222/3 41/223/3
f 41/223/3 52/222/3 39/224/3
f 41/223/3 39/224/3 36/225/3
f 36/225/3 39/224/3 74/226/3
f 36/225/3 74/226/3 63/227/3
f 40/221/3 53/228/3 52/222/3
f 49/229/3 48/230/3 52/222/3
f 52/222/3 48/230/3 39/224/3
f 59/231/3 71/232/3 48/230/3
f 48/230/3 71/232/3 38/233/3
f 48/230/3 38/233/3 39/224/3
f 39/224/3 38/233/3 37/234/3
f 35/235/3 65/236/3 36/225/3
f 36/225/3 65/236/3 41/223/3
f 66/237/3 56/238/3 65/236/3
f 65/236/3 56/238/3 46/239/3
f 65/236/3 46/239/3 41/223/3
f 41/223/3 46/239/3 44/240/3
